<svg width="2766" height="3580" viewBox="0 0 2766 3580" fill="none" xmlns="http://www.w3.org/2000/svg">
<path d="M900.5 496.993C601.3 315.793 376.333 656.993 289.5 841.493C700 1043.99 796 799.993 835.5 755.493C867.1 719.893 884.333 740.66 889 755.493C914.667 784.993 979.1 846.493 1031.5 856.493C1083.9 866.493 1053.33 905.326 1031.5 923.493C911.667 1054.66 653.4 1367.59 579 1569.99C486 1822.99 743.5 1901.99 813.5 1892.49C869.5 1884.89 880.667 1984.66 869 2013.49C831.667 2102.16 765.4 2314.09 691 2678.49C598 3133.99 700 3144.99 707 3168.49C712.6 3187.29 742 3183.99 756 3179.99C790.333 3312.99 809.4 3615.69 869 3576.49C943.5 3527.49 945 3303.49 999 3238.49C1042.2 3186.49 1096.33 3216.83 1118 3238.49C1139 3312.33 1152.9 3514.79 1214.5 3525.99C1276.1 3537.19 1339.67 3282.66 1342 3179.99C1423.67 3135.66 1594.9 3038.09 1626.5 3002.49C1658.1 2966.89 1591.33 2670.99 1529.5 2500.99L1499 2380.99C1606.67 2149.33 1797.6 1412.99 1826 1316.99C1854.4 1220.99 1833.17 1148.33 1819 1123.99C1780.33 1085.33 1687.9 1006.69 1627.5 1001.49C1552 994.993 1520 1039.99 1480.5 1072.49C1448.9 1098.49 1421 1075.33 1411 1060.49C1401.17 1001.49 1376.6 878.093 1357 856.493C1337.4 834.893 1348.83 809.826 1357 799.993L1465.5 642.493C1478.5 589.16 1528.5 472.993 1432 286.993C1131.2 48.9931 944.167 319.993 900.5 496.993Z" fill="#466CB4"/>
<path d="M730 1272.49C648 1136.89 847.833 970.66 958 904.493C942.333 1027.16 902.8 1285.89 870 1339.49C837.2 1393.09 763 1317.16 730 1272.49Z" fill="#FA5A40"/>
<path d="M1475 2097.99C1194.6 2264.79 1087.83 2006.83 1069.5 1856.99C1151.1 1876.59 1477.5 1758.16 1630.5 1696.49C1709.61 1629.83 1865.06 1432.49 1854 1176.49C1842.94 920.493 1570.39 982.826 1435.5 1045.99C1414.67 963.16 1375.9 794.593 1387.5 782.993C1741.5 596.993 2079 1158.49 2084.5 1256.99C2090 1355.49 1999 1351.49 1895 1447.99C1811.8 1525.19 1921.17 1710.99 1990.5 1769.99L1909.5 2556.49C1867.83 2794.83 1845.1 3296.59 1747.5 3376.99C1625.5 3477.49 1628 2581.49 1628 2371.49C1599.2 2209.49 1532.67 2320.33 1503 2395.99L1475 2097.99Z" fill="#FA5A40"/>
<path d="M143.5 3212.99C-262.5 3188.59 292.333 2362.49 620.5 1952.49C507.167 2153.83 271.2 2596.39 234 2755.99C187.5 2955.49 450 2821.49 730 2755.99C954 2703.59 916.667 2925.16 870 3042.49C797 3109.49 549.5 3237.39 143.5 3212.99Z" fill="#FA5A40"/>
<path d="M1489 652.993C1534.2 380.993 1471.33 247.493 1428 217.993C1476 39.993 1582 41.993 1594 31.993C1784.8 -76.407 1931.17 116.493 1980.5 226.493C2006.83 327.493 2018.4 561.893 1854 691.493C1648.5 853.493 1489 666.993 1489 652.993Z" fill="#FA5A40"/>
<path d="M1256.5 1328.99C1129.3 1328.99 998.5 1567.49 998.5 1567.49C1142.5 1576.16 1457.9 1589.89 1499.5 1527.49C1551.5 1449.49 1415.5 1328.99 1256.5 1328.99Z" fill="white"/>
<circle cx="1606.5" cy="1227.99" r="185.5" fill="white"/>
<path d="M2092 1750.99C1850.4 1681.79 1872.67 1522.49 1914 1451.49C2004 1354.99 2368.5 1139.99 2700 1451.49C2965.2 1700.69 2356.5 2342.66 2019 2632.49C2142 2476.33 2403.5 2161.99 2454 2050.49C2502 1870.99 2483 1949.49 2515.5 1807.49C2515.5 1744.99 2508.5 1735.16 2486.5 1734.99C2462.67 1747.99 2350.4 1769.39 2092 1750.99Z" fill="#466CB4"/>
</svg>
