<svg width="24" height="21" viewBox="0 0 24 21" fill="none" xmlns="http://www.w3.org/2000/svg">
<path d="M2 3.5C2 2.96957 2.21071 2.46086 2.58579 2.08579C2.96086 1.71071 3.46957 1.5 4 1.5H10V19.5H4C3.46957 19.5 2.96086 19.2893 2.58579 18.9142C2.21071 18.5391 2 18.0304 2 17.5V3.5ZM14 1.5H20C20.5304 1.5 21.0391 1.71071 21.4142 2.08579C21.7893 2.46086 22 2.96957 22 3.5V8.5H14V1.5ZM14 12.5H22V17.5C22 18.0304 21.7893 18.5391 21.4142 18.9142C21.0391 19.2893 20.5304 19.5 20 19.5H14V12.5Z" stroke="#0000AC" stroke-width="2.5" stroke-linecap="round" stroke-linejoin="round"/>
</svg>
