<svg width="22" height="17" viewBox="0 0 22 17" fill="none" xmlns="http://www.w3.org/2000/svg">
<path d="M20.75 0.25H1.25C0.835156 0.25 0.5 0.585156 0.5 1V16C0.5 16.4148 0.835156 16.75 1.25 16.75H20.75C21.1648 16.75 21.5 16.4148 21.5 16V1C21.5 0.585156 21.1648 0.25 20.75 0.25ZM19.8125 2.84687V15.0625H2.1875V2.84687L1.54063 2.34297L2.46172 1.15938L3.46484 1.93984H18.5375L19.5406 1.15938L20.4617 2.34297L19.8125 2.84687ZM18.5375 1.9375L11 7.79688L3.4625 1.9375L2.45938 1.15703L1.53828 2.34062L2.18516 2.84453L10.1914 9.06953C10.4217 9.24841 10.7049 9.34551 10.9965 9.34551C11.2881 9.34551 11.5713 9.24841 11.8016 9.06953L19.8125 2.84687L20.4594 2.34297L19.5383 1.15938L18.5375 1.9375Z" fill="#828282"/>
</svg>
