<svg width="24" height="19" viewBox="0 0 24 19" fill="none" xmlns="http://www.w3.org/2000/svg">
<path d="M22.5 18.5C22.5 18.5 24 18.5 24 17C24 15.5 22.5 11 16.5 11C10.5 11 9 15.5 9 17C9 18.5 10.5 18.5 10.5 18.5H22.5ZM10.533 17C10.5219 16.9985 10.5109 16.9965 10.5 16.994C10.5015 16.598 10.7505 15.449 11.64 14.414C12.468 13.4435 13.923 12.5 16.5 12.5C19.0755 12.5 20.5305 13.445 21.36 14.414C22.2495 15.449 22.497 16.5995 22.5 16.994L22.488 16.997C22.481 16.9982 22.474 16.9992 22.467 17H10.533ZM16.5 8C17.2956 8 18.0587 7.68393 18.6213 7.12132C19.1839 6.55871 19.5 5.79565 19.5 5C19.5 4.20435 19.1839 3.44129 18.6213 2.87868C18.0587 2.31607 17.2956 2 16.5 2C15.7044 2 14.9413 2.31607 14.3787 2.87868C13.8161 3.44129 13.5 4.20435 13.5 5C13.5 5.79565 13.8161 6.55871 14.3787 7.12132C14.9413 7.68393 15.7044 8 16.5 8ZM21 5C21 5.59095 20.8836 6.17611 20.6575 6.72208C20.4313 7.26804 20.0998 7.76412 19.682 8.18198C19.2641 8.59984 18.768 8.93131 18.2221 9.15746C17.6761 9.3836 17.0909 9.5 16.5 9.5C15.9091 9.5 15.3239 9.3836 14.7779 9.15746C14.232 8.93131 13.7359 8.59984 13.318 8.18198C12.9002 7.76412 12.5687 7.26804 12.3425 6.72208C12.1164 6.17611 12 5.59095 12 5C12 3.80653 12.4741 2.66193 13.318 1.81802C14.1619 0.974106 15.3065 0.5 16.5 0.5C17.6935 0.5 18.8381 0.974106 19.682 1.81802C20.5259 2.66193 21 3.80653 21 5ZM10.404 11.42C9.80397 11.2311 9.18545 11.1069 8.559 11.0495C8.207 11.016 7.85359 10.9995 7.5 11C1.5 11 0 15.5 0 17C0 18.0005 0.4995 18.5 1.5 18.5H7.824C7.60163 18.0317 7.49074 17.5183 7.5 17C7.5 15.485 8.0655 13.937 9.135 12.644C9.4995 12.203 9.924 11.7905 10.404 11.42ZM7.38 12.5C6.49223 13.8339 6.01266 15.3977 6 17H1.5C1.5 16.61 1.746 15.455 2.64 14.414C3.4575 13.46 4.878 12.53 7.38 12.5015V12.5ZM2.25 5.75C2.25 4.55653 2.72411 3.41193 3.56802 2.56802C4.41193 1.72411 5.55653 1.25 6.75 1.25C7.94347 1.25 9.08807 1.72411 9.93198 2.56802C10.7759 3.41193 11.25 4.55653 11.25 5.75C11.25 6.94347 10.7759 8.08807 9.93198 8.93198C9.08807 9.77589 7.94347 10.25 6.75 10.25C5.55653 10.25 4.41193 9.77589 3.56802 8.93198C2.72411 8.08807 2.25 6.94347 2.25 5.75ZM6.75 2.75C5.95435 2.75 5.19129 3.06607 4.62868 3.62868C4.06607 4.19129 3.75 4.95435 3.75 5.75C3.75 6.54565 4.06607 7.30871 4.62868 7.87132C5.19129 8.43393 5.95435 8.75 6.75 8.75C7.54565 8.75 8.30871 8.43393 8.87132 7.87132C9.43393 7.30871 9.75 6.54565 9.75 5.75C9.75 4.95435 9.43393 4.19129 8.87132 3.62868C8.30871 3.06607 7.54565 2.75 6.75 2.75Z" fill="#828282"/>
</svg>
