<svg width="20" height="22" viewBox="0 0 20 22" fill="none" xmlns="http://www.w3.org/2000/svg">
<path d="M19.6748 14.1649L18.1397 12.8524C18.2123 12.4071 18.2498 11.9524 18.2498 11.4978C18.2498 11.0431 18.2123 10.5884 18.1397 10.1431L19.6748 8.83057C19.7906 8.73144 19.8735 8.59942 19.9124 8.45205C19.9513 8.30468 19.9445 8.14895 19.8928 8.00557L19.8717 7.94463C19.4491 6.76344 18.8162 5.66846 18.0037 4.7126L17.9615 4.66338C17.863 4.54749 17.7316 4.46418 17.5847 4.42443C17.4379 4.38468 17.2824 4.39036 17.1389 4.44072L15.2334 5.11807C14.5303 4.5415 13.7451 4.08682 12.8967 3.76807L12.5287 1.77588C12.501 1.62598 12.4282 1.48807 12.3202 1.38048C12.2122 1.27289 12.074 1.20071 11.924 1.17354L11.8607 1.16182C10.6397 0.941504 9.35528 0.941504 8.13418 1.16182L8.0709 1.17354C7.9209 1.20071 7.78271 1.27289 7.6747 1.38048C7.56669 1.48807 7.49398 1.62598 7.46622 1.77588L7.0959 3.77744C6.25424 4.09626 5.47043 4.5507 4.77559 5.12275L2.85606 4.44072C2.71254 4.38996 2.55698 4.38408 2.41003 4.42385C2.26309 4.46362 2.13173 4.54716 2.0334 4.66338L1.99122 4.7126C1.17968 5.66914 0.546941 6.76393 0.123247 7.94463L0.102153 8.00557C-0.0033156 8.29853 0.0834032 8.62666 0.320122 8.83057L1.87403 10.1571C1.80137 10.5978 1.76622 11.0478 1.76622 11.4954C1.76622 11.9454 1.80137 12.3954 1.87403 12.8337L0.320122 14.1603C0.204331 14.2594 0.121457 14.3914 0.0825219 14.5388C0.0435864 14.6861 0.0504336 14.8419 0.102153 14.9853L0.123247 15.0462C0.547466 16.2274 1.17559 17.3173 1.99122 18.2782L2.0334 18.3274C2.13197 18.4433 2.26333 18.5266 2.41019 18.5664C2.55704 18.6061 2.7125 18.6005 2.85606 18.5501L4.77559 17.8681C5.47403 18.4423 6.2545 18.897 7.0959 19.2134L7.46622 21.2149C7.49398 21.3648 7.56669 21.5027 7.6747 21.6103C7.78271 21.7179 7.9209 21.7901 8.0709 21.8173L8.13418 21.829C9.3665 22.0505 10.6284 22.0505 11.8607 21.829L11.924 21.8173C12.074 21.7901 12.2122 21.7179 12.3202 21.6103C12.4282 21.5027 12.501 21.3648 12.5287 21.2149L12.8967 19.2228C13.7448 18.9048 14.5344 18.4487 15.2334 17.8728L17.1389 18.5501C17.2824 18.6009 17.438 18.6067 17.5849 18.567C17.7318 18.5272 17.8632 18.4437 17.9615 18.3274L18.0037 18.2782C18.8193 17.3149 19.4475 16.2274 19.8717 15.0462L19.8928 14.9853C19.9982 14.697 19.9115 14.3688 19.6748 14.1649ZM16.4756 10.4196C16.5342 10.7735 16.5647 11.1368 16.5647 11.5001C16.5647 11.8634 16.5342 12.2267 16.4756 12.5806L16.3209 13.5204L18.0717 15.0181C17.8063 15.6295 17.4712 16.2083 17.0732 16.7431L14.8982 15.972L14.1623 16.5767C13.6022 17.036 12.9787 17.397 12.3037 17.6501L11.4107 17.9853L10.9912 20.2587C10.3293 20.3337 9.66097 20.3337 8.99903 20.2587L8.5795 17.9806L7.69356 17.6407C7.02559 17.3876 6.4045 17.0267 5.84903 16.5696L5.11309 15.9626L2.92403 16.7407C2.52559 16.204 2.19278 15.6251 1.92559 15.0157L3.69512 13.504L3.54278 12.5665C3.48653 12.2173 3.45606 11.8563 3.45606 11.5001C3.45606 11.1415 3.48418 10.7829 3.54278 10.4337L3.69512 9.49619L1.92559 7.98447C2.19043 7.37275 2.52559 6.79619 2.92403 6.25947L5.11309 7.0376L5.84903 6.43057C6.4045 5.97354 7.02559 5.6126 7.69356 5.35947L8.58184 5.02432L9.00137 2.74619C9.65997 2.67119 10.3326 2.67119 10.9936 2.74619L11.4131 5.01963L12.3061 5.35478C12.9787 5.60791 13.6045 5.96885 14.1647 6.42822L14.9006 7.03291L17.0756 6.26182C17.474 6.79853 17.8068 7.37744 18.074 7.98682L16.3232 9.48447L16.4756 10.4196ZM9.99981 7.14072C7.72168 7.14072 5.87481 8.9876 5.87481 11.2657C5.87481 13.5438 7.72168 15.3907 9.99981 15.3907C12.2779 15.3907 14.1248 13.5438 14.1248 11.2657C14.1248 8.9876 12.2779 7.14072 9.99981 7.14072ZM11.8561 13.122C11.6126 13.3661 11.3233 13.5598 11.0047 13.6917C10.6861 13.8236 10.3446 13.8913 9.99981 13.8907C9.29903 13.8907 8.64043 13.6165 8.14356 13.122C7.8994 12.8785 7.70578 12.5892 7.57385 12.2706C7.44192 11.952 7.37427 11.6105 7.37481 11.2657C7.37481 10.5649 7.64903 9.90635 8.14356 9.40947C8.64043 8.9126 9.29903 8.64072 9.99981 8.64072C10.7006 8.64072 11.3592 8.9126 11.8561 9.40947C12.1002 9.65294 12.2938 9.94228 12.4258 10.2608C12.5577 10.5794 12.6253 10.9209 12.6248 11.2657C12.6248 11.9665 12.3506 12.6251 11.8561 13.122Z" fill="#828282"/>
</svg>
