<svg width="19" height="24" viewBox="0 0 19 24" fill="none" xmlns="http://www.w3.org/2000/svg">
<path d="M9 23.09V19.49C3.99 19.23 0 15.07 0 10C0 4.76 4.26 0.5 9.5 0.5C14.74 0.5 19 4.76 19 10C19 14.95 15.56 19.93 10.43 22.4L9 23.09ZM9.5 2.5C5.36 2.5 2 5.86 2 10C2 14.14 5.36 17.5 9.5 17.5H11V19.8C14.64 17.5 17 13.72 17 10C17 5.86 13.64 2.5 9.5 2.5ZM8.5 14H10.5V16H8.5V14ZM10.5 12.5H8.5C8.5 9.25 11.5 9.5 11.5 7.5C11.5 6.4 10.6 5.5 9.5 5.5C8.4 5.5 7.5 6.4 7.5 7.5H5.5C5.5 5.29 7.29 3.5 9.5 3.5C11.71 3.5 13.5 5.29 13.5 7.5C13.5 10 10.5 10.25 10.5 12.5Z" fill="#828282"/>
</svg>
